<mxfile host="app.diagrams.net" modified="2024-01-28T21:02:58.806Z" agent="Mozilla/5.0 (Windows NT 10.0; Win64; x64) AppleWebKit/537.36 (KHTML, like Gecko) Chrome/109.0.0.0 Safari/537.36" etag="XR3hf8UH9GxD5dvPya4s" version="23.0.2" type="device">
  <diagram name="Page-1" id="oPzNpsAA452b8PwyPHtE">
    <mxGraphModel dx="880" dy="484" grid="1" gridSize="10" guides="1" tooltips="1" connect="1" arrows="1" fold="1" page="1" pageScale="1" pageWidth="850" pageHeight="1100" math="0" shadow="0">
      <root>
        <mxCell id="0" />
        <mxCell id="1" parent="0" />
        <mxCell id="MwXtcQGHyUeom0qNUb8d-2" value="User" style="swimlane;whiteSpace=wrap;html=1;" vertex="1" parent="1">
          <mxGeometry x="120" y="80" width="200" height="200" as="geometry" />
        </mxCell>
        <mxCell id="MwXtcQGHyUeom0qNUb8d-7" value="-&amp;nbsp; userId : int" style="text;html=1;align=center;verticalAlign=middle;resizable=0;points=[];autosize=1;strokeColor=none;fillColor=none;" vertex="1" parent="MwXtcQGHyUeom0qNUb8d-2">
          <mxGeometry y="28" width="90" height="30" as="geometry" />
        </mxCell>
        <mxCell id="MwXtcQGHyUeom0qNUb8d-10" value="-&amp;nbsp; name : String" style="text;html=1;align=center;verticalAlign=middle;resizable=0;points=[];autosize=1;strokeColor=none;fillColor=none;" vertex="1" parent="MwXtcQGHyUeom0qNUb8d-2">
          <mxGeometry y="68" width="110" height="30" as="geometry" />
        </mxCell>
        <mxCell id="MwXtcQGHyUeom0qNUb8d-11" value="- yourCourses : List&amp;lt;Course&amp;gt;" style="text;html=1;align=center;verticalAlign=middle;resizable=0;points=[];autosize=1;strokeColor=none;fillColor=none;" vertex="1" parent="MwXtcQGHyUeom0qNUb8d-2">
          <mxGeometry y="118" width="180" height="30" as="geometry" />
        </mxCell>
        <mxCell id="MwXtcQGHyUeom0qNUb8d-3" value="Tutor" style="swimlane;whiteSpace=wrap;html=1;" vertex="1" parent="1">
          <mxGeometry x="480" y="80" width="200" height="208" as="geometry" />
        </mxCell>
        <mxCell id="MwXtcQGHyUeom0qNUb8d-12" value="- tutorId : int" style="text;html=1;align=center;verticalAlign=middle;resizable=0;points=[];autosize=1;strokeColor=none;fillColor=none;" vertex="1" parent="MwXtcQGHyUeom0qNUb8d-3">
          <mxGeometry y="28" width="90" height="30" as="geometry" />
        </mxCell>
        <mxCell id="MwXtcQGHyUeom0qNUb8d-14" value="+ teach (course : Course) : void" style="text;html=1;align=center;verticalAlign=middle;resizable=0;points=[];autosize=1;strokeColor=none;fillColor=none;" vertex="1" parent="MwXtcQGHyUeom0qNUb8d-3">
          <mxGeometry y="110" width="190" height="30" as="geometry" />
        </mxCell>
        <mxCell id="MwXtcQGHyUeom0qNUb8d-13" value="- name: String" style="text;html=1;align=center;verticalAlign=middle;resizable=0;points=[];autosize=1;strokeColor=none;fillColor=none;" vertex="1" parent="MwXtcQGHyUeom0qNUb8d-3">
          <mxGeometry y="68" width="100" height="30" as="geometry" />
        </mxCell>
        <mxCell id="MwXtcQGHyUeom0qNUb8d-4" value="Course" style="swimlane;whiteSpace=wrap;html=1;" vertex="1" parent="1">
          <mxGeometry x="120" y="320" width="200" height="200" as="geometry" />
        </mxCell>
        <mxCell id="MwXtcQGHyUeom0qNUb8d-20" value="- description : String" style="text;html=1;align=center;verticalAlign=middle;resizable=0;points=[];autosize=1;strokeColor=none;fillColor=none;" vertex="1" parent="MwXtcQGHyUeom0qNUb8d-4">
          <mxGeometry y="110" width="130" height="30" as="geometry" />
        </mxCell>
        <mxCell id="MwXtcQGHyUeom0qNUb8d-16" value="- courseId : int" style="text;html=1;align=center;verticalAlign=middle;resizable=0;points=[];autosize=1;strokeColor=none;fillColor=none;" vertex="1" parent="MwXtcQGHyUeom0qNUb8d-4">
          <mxGeometry y="38" width="100" height="30" as="geometry" />
        </mxCell>
        <mxCell id="MwXtcQGHyUeom0qNUb8d-19" value="- title : String" style="text;html=1;align=center;verticalAlign=middle;resizable=0;points=[];autosize=1;strokeColor=none;fillColor=none;" vertex="1" parent="MwXtcQGHyUeom0qNUb8d-4">
          <mxGeometry x="5" y="80" width="90" height="30" as="geometry" />
        </mxCell>
        <mxCell id="MwXtcQGHyUeom0qNUb8d-21" value="- tutor : Tutor" style="text;html=1;align=center;verticalAlign=middle;resizable=0;points=[];autosize=1;strokeColor=none;fillColor=none;" vertex="1" parent="MwXtcQGHyUeom0qNUb8d-4">
          <mxGeometry x="5" y="148" width="90" height="30" as="geometry" />
        </mxCell>
        <mxCell id="MwXtcQGHyUeom0qNUb8d-5" value="LESSON" style="swimlane;whiteSpace=wrap;html=1;startSize=23;" vertex="1" parent="1">
          <mxGeometry x="480" y="320" width="200" height="200" as="geometry" />
        </mxCell>
        <mxCell id="MwXtcQGHyUeom0qNUb8d-22" value="- lessonId : int" style="text;html=1;align=center;verticalAlign=middle;resizable=0;points=[];autosize=1;strokeColor=none;fillColor=none;" vertex="1" parent="MwXtcQGHyUeom0qNUb8d-5">
          <mxGeometry y="38" width="100" height="30" as="geometry" />
        </mxCell>
        <mxCell id="MwXtcQGHyUeom0qNUb8d-23" value="- title : String" style="text;html=1;align=center;verticalAlign=middle;resizable=0;points=[];autosize=1;strokeColor=none;fillColor=none;" vertex="1" parent="MwXtcQGHyUeom0qNUb8d-5">
          <mxGeometry x="5" y="68" width="90" height="30" as="geometry" />
        </mxCell>
        <mxCell id="MwXtcQGHyUeom0qNUb8d-24" value="- content : String" style="text;html=1;align=center;verticalAlign=middle;resizable=0;points=[];autosize=1;strokeColor=none;fillColor=none;" vertex="1" parent="MwXtcQGHyUeom0qNUb8d-5">
          <mxGeometry x="5" y="100" width="110" height="30" as="geometry" />
        </mxCell>
        <mxCell id="MwXtcQGHyUeom0qNUb8d-25" value="- course : Course" style="text;html=1;align=center;verticalAlign=middle;resizable=0;points=[];autosize=1;strokeColor=none;fillColor=none;" vertex="1" parent="MwXtcQGHyUeom0qNUb8d-5">
          <mxGeometry y="130" width="120" height="30" as="geometry" />
        </mxCell>
        <mxCell id="MwXtcQGHyUeom0qNUb8d-26" value="&lt;font style=&quot;font-size: 30px;&quot;&gt;CLASS DIAGRAM&lt;/font&gt;" style="text;html=1;align=center;verticalAlign=middle;resizable=0;points=[];autosize=1;strokeColor=none;fillColor=none;" vertex="1" parent="1">
          <mxGeometry x="290" width="270" height="50" as="geometry" />
        </mxCell>
        <mxCell id="MwXtcQGHyUeom0qNUb8d-29" value="&lt;font style=&quot;font-size: 25px;&quot;&gt;USE CASE DIAGRAM&lt;/font&gt;" style="text;html=1;align=center;verticalAlign=middle;resizable=0;points=[];autosize=1;strokeColor=none;fillColor=none;" vertex="1" parent="1">
          <mxGeometry x="255" y="583" width="270" height="40" as="geometry" />
        </mxCell>
        <mxCell id="MwXtcQGHyUeom0qNUb8d-33" value="User" style="swimlane;whiteSpace=wrap;html=1;startSize=50;" vertex="1" parent="1">
          <mxGeometry x="30" y="720" width="200" height="200" as="geometry" />
        </mxCell>
        <mxCell id="MwXtcQGHyUeom0qNUb8d-34" value="E-Learning Service" style="swimlane;whiteSpace=wrap;html=1;startSize=50;" vertex="1" parent="1">
          <mxGeometry x="325" y="720" width="200" height="200" as="geometry" />
        </mxCell>
        <mxCell id="MwXtcQGHyUeom0qNUb8d-40" value="- creates and uploads a Course&amp;nbsp;" style="text;html=1;align=center;verticalAlign=middle;resizable=0;points=[];autosize=1;strokeColor=none;fillColor=none;" vertex="1" parent="MwXtcQGHyUeom0qNUb8d-34">
          <mxGeometry y="98" width="190" height="30" as="geometry" />
        </mxCell>
        <mxCell id="MwXtcQGHyUeom0qNUb8d-35" value="Tutor" style="swimlane;whiteSpace=wrap;html=1;startSize=50;" vertex="1" parent="1">
          <mxGeometry x="620" y="720" width="200" height="200" as="geometry" />
        </mxCell>
        <mxCell id="MwXtcQGHyUeom0qNUb8d-41" value="- teach(course : Course) : void" style="text;html=1;align=center;verticalAlign=middle;resizable=0;points=[];autosize=1;strokeColor=none;fillColor=none;" vertex="1" parent="MwXtcQGHyUeom0qNUb8d-35">
          <mxGeometry y="98" width="180" height="30" as="geometry" />
        </mxCell>
        <mxCell id="MwXtcQGHyUeom0qNUb8d-36" value="" style="endArrow=classic;html=1;rounded=0;" edge="1" parent="1">
          <mxGeometry width="50" height="50" relative="1" as="geometry">
            <mxPoint x="330" y="830" as="sourcePoint" />
            <mxPoint x="330" y="830" as="targetPoint" />
            <Array as="points">
              <mxPoint x="230" y="830" />
            </Array>
          </mxGeometry>
        </mxCell>
        <mxCell id="MwXtcQGHyUeom0qNUb8d-38" value="" style="endArrow=classic;html=1;rounded=0;" edge="1" parent="1">
          <mxGeometry width="50" height="50" relative="1" as="geometry">
            <mxPoint x="520" y="830" as="sourcePoint" />
            <mxPoint x="620" y="830" as="targetPoint" />
          </mxGeometry>
        </mxCell>
        <mxCell id="MwXtcQGHyUeom0qNUb8d-39" value="- subscribes to a Course" style="text;html=1;align=center;verticalAlign=middle;resizable=0;points=[];autosize=1;strokeColor=none;fillColor=none;" vertex="1" parent="1">
          <mxGeometry x="25" y="808" width="150" height="30" as="geometry" />
        </mxCell>
      </root>
    </mxGraphModel>
  </diagram>
</mxfile>
